<?xml version="1.0" encoding="UTF-8" standalone="no"?>
<!-- Generator: Adobe Illustrator 15.1.0, SVG Export Plug-In . SVG Version: 6.00 Build 0)  -->

<svg
   xmlns:dc="http://purl.org/dc/elements/1.1/"
   xmlns:cc="http://creativecommons.org/ns#"
   xmlns:rdf="http://www.w3.org/1999/02/22-rdf-syntax-ns#"
   xmlns:svg="http://www.w3.org/2000/svg"
   xmlns="http://www.w3.org/2000/svg"
   xmlns:sodipodi="http://sodipodi.sourceforge.net/DTD/sodipodi-0.dtd"
   xmlns:inkscape="http://www.inkscape.org/namespaces/inkscape"
   version="1.1"
   id="Layer_1"
   x="0px"
   y="0px"
   width="360px"
   height="160px"
   viewBox="0 0 360 160"
   enable-background="new 0 0 360 160"
   xml:space="preserve"
   inkscape:version="0.91 r13725"
   sodipodi:docname="login-logo.svg"><metadata
     id="metadata61"><rdf:RDF><cc:Work
         rdf:about=""><dc:format>image/svg+xml</dc:format><dc:type
           rdf:resource="http://purl.org/dc/dcmitype/StillImage" /><dc:title></dc:title></cc:Work></rdf:RDF></metadata><defs
     id="defs59" /><sodipodi:namedview
     pagecolor="#ffffff"
     bordercolor="#666666"
     borderopacity="1"
     objecttolerance="10"
     gridtolerance="10"
     guidetolerance="10"
     inkscape:pageopacity="0"
     inkscape:pageshadow="2"
     inkscape:window-width="1366"
     inkscape:window-height="744"
     id="namedview57"
     showgrid="false"
     inkscape:snap-text-baseline="false"
     inkscape:zoom="0.82777778"
     inkscape:cx="-61.610738"
     inkscape:cy="31.677852"
     inkscape:window-x="0"
     inkscape:window-y="24"
     inkscape:window-maximized="1"
     inkscape:current-layer="Layer_1" /><g
     id="g47"
     transform="translate(140.13423,-146.1745)" /><g
     transform="matrix(0.23621258,0,0,0.24161438,-60.220905,-6.6722418)"
     id="g3852"
     style="fill:#ff6600;fill-opacity:1"><path
       sodipodi:nodetypes="ccccccccccccccccccccccccccc"
       inkscape:connector-curvature="0"
       id="path3719"
       d="M 590.4043,39.003906 C 464.86834,39.487755 343.76985,122.1368 298.4158,239.34535 c -28.34294,71.82198 -26.89784,153.87221 0.31272,225.79527 10.55984,29.01972 24.63351,56.69224 41.09375,82.79688 1.82276,-5.17552 32.83397,-27.91484 54.35398,-15.29138 L 431.61523,502.4082 C 391.51842,451.29571 366.2496,384.73442 376.6937,319.43361 c 10.7535,-70.266 61.12957,-131.84971 124.92998,-161.29081 58.32658,-27.74799 129.95869,-29.40986 187.69077,1.64822 19.31954,10.04882 36.87569,23.01269 52.56836,38.01953 l 34.01172,-34.01172 c -11.69699,-16.20057 -5.74755,-37.22198 -0.79762,-54.73369 3.58929,-5.7282 -1.01095,-11.529489 -6.25707,-13.692093 C 717.1319,58.849991 653.89749,38.101413 590.4043,39.003906 Z m 2.85156,16.976563 c 58.33324,-0.276714 116.6975,18.958091 164.48242,52.384761 -4.82015,16.73381 -8.63808,35.13013 -2.50195,52.05274 l -13.97071,13.9707 C 687.28293,127.3593 609.97409,108.40416 540.53906,126.42578 459.3201,146.0938 388.67555,209.63804 365.67773,290.68359 c -18.80209,64.69637 -3.91259,135.96244 31.86023,192.09773 3.75207,6.05051 7.70305,11.97405 11.52454,17.9804 l -21.10064,14.682 c -15.82507,-3.96558 -30.58059,0.53083 -44.29561,8.88921 C 305.06395,458.95062 285.98488,381.68462 297.93164,305.97266 311.98083,209.85115 379.31722,125.55738 466.61457,84.706687 506.10538,66.156628 549.73396,55.934948 593.25586,55.980469 Z"
       style="color:#000000;font-style:normal;font-variant:normal;font-weight:normal;font-stretch:normal;font-size:medium;line-height:normal;font-family:sans-serif;text-indent:0;text-align:start;text-decoration:none;text-decoration-line:none;text-decoration-style:solid;text-decoration-color:#000000;letter-spacing:normal;word-spacing:normal;text-transform:none;direction:ltr;block-progression:tb;writing-mode:lr-tb;baseline-shift:baseline;text-anchor:start;white-space:normal;clip-rule:nonzero;display:inline;overflow:visible;visibility:visible;opacity:1;isolation:auto;mix-blend-mode:normal;color-interpolation:sRGB;color-interpolation-filters:linearRGB;solid-color:#000000;solid-opacity:1;fill:#ff6600;fill-opacity:1;fill-rule:evenodd;stroke:none;stroke-width:1px;stroke-linecap:butt;stroke-linejoin:miter;stroke-miterlimit:4;stroke-dasharray:none;stroke-dashoffset:0;stroke-opacity:1;color-rendering:auto;image-rendering:auto;shape-rendering:auto;text-rendering:auto;enable-background:accumulate" /><path
       inkscape:connector-curvature="0"
       id="path3731"
       d="M 738.41992,515.36133 C 693.99419,551.063 637.83754,576.75675 579.73465,572.35908 530.82686,568.93193 485.5465,545.80473 447.2832,516.32031 c -8.57593,-1.06514 -11.78209,8.60521 -17.76975,12.65047 -6.28637,6.2858 -12.57288,12.57145 -18.85915,18.85734 10.7903,17.97482 7.8815,41.89398 -5.4336,57.86915 80.36762,59.87094 190.35639,79.24423 285.5457,46.50002 32.09496,-10.71429 62.37293,-26.95363 88.83907,-48.05862 -5.63911,-13.0156 -14.40461,-27.51523 -9.61727,-42.02333 0.93843,-4.70225 2.40349,-9.27646 3.81063,-13.85362 C 762.47018,536.93411 751.1411,525.60694 739.8125,514.2793 l -0.78965,0.61355 -0.60293,0.46848 z m -290.42383,22.58008 c 46.60537,33.97074 104.32089,56.71573 162.743,51.06909 46.53409,-4.16005 90.22119,-24.68784 127.51872,-52.10425 5.15082,5.79144 12.65757,10.51302 15.98633,17.31836 -4.03218,14.70375 -2.95011,31.06209 4.2832,44.61523 -13.55741,9.47554 -27.73238,18.20455 -42.76172,25.09571 -82.40515,38.85684 -182.81571,35.40388 -262.58619,-8.24389 -8.58462,-4.55982 -16.94958,-9.53173 -25.07201,-14.87135 6.93604,-15.29002 8.27732,-33.24523 2.79297,-49.19531 5.04167,-5.04232 10.08333,-10.08464 15.125,-15.12695 0.6569,0.48112 1.3138,0.96224 1.9707,1.44336 z"
       style="color:#000000;font-style:normal;font-variant:normal;font-weight:normal;font-stretch:normal;font-size:medium;line-height:normal;font-family:sans-serif;text-indent:0;text-align:start;text-decoration:none;text-decoration-line:none;text-decoration-style:solid;text-decoration-color:#000000;letter-spacing:normal;word-spacing:normal;text-transform:none;direction:ltr;block-progression:tb;writing-mode:lr-tb;baseline-shift:baseline;text-anchor:start;white-space:normal;clip-rule:nonzero;display:inline;overflow:visible;visibility:visible;opacity:1;isolation:auto;mix-blend-mode:normal;color-interpolation:sRGB;color-interpolation-filters:linearRGB;solid-color:#000000;solid-opacity:1;fill:#ff6600;fill-opacity:1;fill-rule:evenodd;stroke:none;stroke-width:1px;stroke-linecap:butt;stroke-linejoin:miter;stroke-miterlimit:4;stroke-dasharray:none;stroke-dashoffset:0;stroke-opacity:1;color-rendering:auto;image-rendering:auto;shape-rendering:auto;text-rendering:auto;enable-background:accumulate" /><path
       inkscape:connector-curvature="0"
       id="path3755"
       d="m 844.75586,169.25391 c -14.77825,9.30881 -33.36098,13.38679 -50.33984,8.31445 -10.18846,0.30343 -14.21898,11.28321 -21.55484,16.50796 -5.35347,5.35347 -10.70693,10.70693 -16.0604,16.0604 30.50217,42.53544 56.8718,92.38572 55.2629,146.23017 -1.30099,49.49118 -23.15903,96.28935 -51.41134,136.09795 -4.2138,4.28317 -5.52159,12.31637 0.10357,16.07628 8.90755,8.90815 17.81499,17.81641 26.72261,26.7245 17.49906,-10.42318 40.80124,-7.08546 55.92773,6.42579 54.66052,-73.54218 77.53907,-171.29798 55.53452,-260.83096 -9.49268,-40.55842 -27.28938,-79.27491 -52.70054,-112.33701 l -0.89724,0.44154 -0.58713,0.28893 z m -2.69531,22.57031 c 55.80937,82.28011 63.26077,193.62177 20.79297,283.23242 -6.92692,15.13213 -14.97169,29.63555 -24.25782,43.47852 -14.51365,-7.09885 -31.81433,-8.46319 -47.18164,-3.375 -5.03255,-5.03256 -10.0651,-10.06511 -15.09765,-15.09766 31.67071,-46.00975 55.56088,-100.60503 52.57617,-157.50586 -2.36333,-47.54202 -23.88359,-91.75926 -50.05469,-130.62109 6.56777,-4.68255 10.86334,-12.69663 17.6582,-16.4961 14.88164,2.70081 30.6781,1.1774 44.44141,-5.2539 l 0.56532,0.82487 0.55773,0.8138 z"
       style="color:#000000;font-style:normal;font-variant:normal;font-weight:normal;font-stretch:normal;font-size:medium;line-height:normal;font-family:sans-serif;text-indent:0;text-align:start;text-decoration:none;text-decoration-line:none;text-decoration-style:solid;text-decoration-color:#000000;letter-spacing:normal;word-spacing:normal;text-transform:none;direction:ltr;block-progression:tb;writing-mode:lr-tb;baseline-shift:baseline;text-anchor:start;white-space:normal;clip-rule:nonzero;display:inline;overflow:visible;visibility:visible;opacity:1;isolation:auto;mix-blend-mode:normal;color-interpolation:sRGB;color-interpolation-filters:linearRGB;solid-color:#000000;solid-opacity:1;fill:#ff6600;fill-opacity:1;fill-rule:evenodd;stroke:none;stroke-width:1px;stroke-linecap:butt;stroke-linejoin:miter;stroke-miterlimit:4;stroke-dasharray:none;stroke-dashoffset:0;stroke-opacity:1;color-rendering:auto;image-rendering:auto;shape-rendering:auto;text-rendering:auto;enable-background:accumulate" /><path
       sodipodi:nodetypes="cccccccccccccccccscccccccc"
       inkscape:connector-curvature="0"
       id="path3777"
       d="m 589.6543,212.10742 c -62.27618,0.63999 -124.01348,43.08503 -142.21875,103.51172 -15.21956,48.41421 -3.69881,104.51784 30.75781,141.57227 27.19049,37.32293 87.85512,45.00148 87.11523,42.96679 l 0.74219,-27.5945 C 470.21964,453.828 439.18662,339.99994 501.69531,275.99414 c 35.69893,-32.97771 90.9232,-44.5969 135.99024,-25.06055 36.40816,15.55964 60.32217,50.80943 72.25118,87.41047 1.57421,3.81904 1.56432,10.64533 7.3953,9.70672 l 20.66016,-0.73437 c 4.03702,-1.83941 -0.0671,-7.54527 0.17773,-10.8125 -10.59313,-47.13838 -41.57796,-91.07185 -86.29657,-111.43482 -19.38985,-8.86357 -40.79396,-13.40198 -62.21905,-12.96167 z m 3.18554,8.89844 c 54.36393,-0.38979 105.52852,36.26017 125.95118,86.10547 4.37926,9.89418 7.79804,20.20287 10.3125,30.72461 l -9.83775,0.0942 c -5.66107,-17.09987 -12.38701,-34.53084 -23.35612,-50.06486 -14.03004,-19.86878 -33.92659,-36.63419 -55.88356,-45.63401 -54.8951,-23.33365 -124.84566,-3.85634 -159.48066,45.00203 -20.36983,30.20931 -25.12293,69.36063 -16.1841,104.18468 16.26059,46.54978 42.76925,74.9092 91.88281,87.88672 l -0.22986,11.70027 c -53.06323,-6.53688 -93.80243,-52.30303 -103.48799,-104.08 -10.31314,-48.7924 8.22216,-103.25328 48.50887,-133.38199 25.87728,-20.59151 58.59766,-32.83947 91.80468,-32.53712 z"
       style="color:#000000;font-style:normal;font-variant:normal;font-weight:normal;font-stretch:normal;font-size:medium;line-height:normal;font-family:sans-serif;text-indent:0;text-align:start;text-decoration:none;text-decoration-line:none;text-decoration-style:solid;text-decoration-color:#000000;letter-spacing:normal;word-spacing:normal;text-transform:none;direction:ltr;block-progression:tb;writing-mode:lr-tb;baseline-shift:baseline;text-anchor:start;white-space:normal;clip-rule:nonzero;display:inline;overflow:visible;visibility:visible;opacity:1;isolation:auto;mix-blend-mode:normal;color-interpolation:sRGB;color-interpolation-filters:linearRGB;solid-color:#000000;solid-opacity:1;fill:#ff6600;fill-opacity:1;fill-rule:evenodd;stroke:none;stroke-width:1px;stroke-linecap:butt;stroke-linejoin:miter;stroke-miterlimit:4;stroke-dasharray:none;stroke-dashoffset:0;stroke-opacity:1;color-rendering:auto;image-rendering:auto;shape-rendering:auto;text-rendering:auto;enable-background:accumulate" /><path
       sodipodi:nodetypes="cccccccccaacccccccccccccccccccc"
       inkscape:connector-curvature="0"
       id="path3789"
       d="m 612.77734,159.97852 c -0.003,6.83963 -1.54201,29.73391 -0.86657,33.61103 10.99299,5.93986 27.45982,7.27965 38.62829,13.23467 57.93585,24.82023 101.20619,84.66583 100.58985,148.50781 -0.15895,51.78687 -26.08435,104.03237 -70.63876,131.58868 -43.82437,28.72312 -102.21939,38.54113 -151.09893,17.03422 -31.99474,-14.36227 -58.87218,-39.46998 -76.97794,-69.35433 -10.0955,-16.9899 -20.18672,-55.30763 -20.18672,-55.30763 l -31.2832,0.44531 c -7.29347,-0.72935 16.61515,69.74097 38.27362,96.88019 24.42911,30.61099 58.61562,58.4343 96.97443,66.33465 59.28733,12.21077 129.88447,5.83152 178.19921,-34.95507 44.40915,-35.74028 71.59417,-92.14419 71.28907,-149.03125 1.88851,-37.71473 -6.04701,-76.98828 -28.71459,-107.6408 -26.2505,-39.06208 -64.95556,-69.50033 -110.30567,-82.79654 -11.13652,-3.57149 -22.40452,-6.40027 -33.88209,-8.55094 z m 10.46289,11.42382 c 44.03266,9.54087 85.74095,32.72279 113.87891,68.36914 18.83667,27.63664 38.74428,62.78981 39.41344,99.51651 2.30067,44.2727 -7.34734,90.50957 -34.42893,126.41712 -33.84468,47.13222 -90.31996,75.15873 -148.67096,73.80241 -54.33782,0.23691 -110.9155,-20.29602 -143.95464,-64.55314 -18.83128,-24.04811 -34.37751,-51.97197 -39.38235,-82.32547 1.57232,-5.2465 8.0002,-2.23912 11.73438,-4.07618 5.91673,0.30877 4.32384,8.4119 6.3457,12.12696 15.5831,54.2871 59.3524,99.7018 112.94727,117.30859 59.80398,18.29257 132.77025,1.76551 173.94756,-45.93359 51.94549,-51.57497 62.53738,-139.68856 23.58203,-201.86238 -18.41483,-38.14785 -69.31608,-75.6605 -119.12334,-82.3134 0.60315,-5.65919 1.17626,-11.30677 1.37304,-17.02735 z"
       style="color:#000000;font-style:normal;font-variant:normal;font-weight:normal;font-stretch:normal;font-size:medium;line-height:normal;font-family:sans-serif;text-indent:0;text-align:start;text-decoration:none;text-decoration-line:none;text-decoration-style:solid;text-decoration-color:#000000;letter-spacing:normal;word-spacing:normal;text-transform:none;direction:ltr;block-progression:tb;writing-mode:lr-tb;baseline-shift:baseline;text-anchor:start;white-space:normal;clip-rule:nonzero;display:inline;overflow:visible;visibility:visible;opacity:1;isolation:auto;mix-blend-mode:normal;color-interpolation:sRGB;color-interpolation-filters:linearRGB;solid-color:#000000;solid-opacity:1;fill:#ff6600;fill-opacity:1;fill-rule:evenodd;stroke:none;stroke-width:1px;stroke-linecap:butt;stroke-linejoin:miter;stroke-miterlimit:4;stroke-dasharray:none;stroke-dashoffset:0;stroke-opacity:1;color-rendering:auto;image-rendering:auto;shape-rendering:auto;text-rendering:auto;enable-background:accumulate" /><path
       inkscape:connector-curvature="0"
       id="path3807"
       d="m 374.93164,537.65234 c -24.3498,-0.466 -43.00359,28.98248 -31.75195,50.73633 8.94153,20.21001 38.39516,28.06507 55.24804,12.93945 15.92198,-12.7977 18.10525,-40.03772 2.09961,-53.69921 -6.81403,-6.45321 -16.18321,-10.23958 -25.5957,-9.97657 z m 1.68555,13 c 17.82171,-0.4544 29.29999,24.34767 16.84375,37.36914 -9.83241,12.53753 -33.04146,10.03874 -38.51758,-5.47851 -6.03172,-13.18548 3.45055,-30.98408 18.37695,-31.70508 1.12582,-0.1441 2.2116,-0.14913 3.29688,-0.18555 z"
       style="color:#000000;font-style:normal;font-variant:normal;font-weight:normal;font-stretch:normal;font-size:medium;line-height:normal;font-family:sans-serif;text-indent:0;text-align:start;text-decoration:none;text-decoration-line:none;text-decoration-style:solid;text-decoration-color:#000000;letter-spacing:normal;word-spacing:normal;text-transform:none;direction:ltr;block-progression:tb;writing-mode:lr-tb;baseline-shift:baseline;text-anchor:start;white-space:normal;clip-rule:nonzero;display:inline;overflow:visible;visibility:visible;opacity:1;isolation:auto;mix-blend-mode:normal;color-interpolation:sRGB;color-interpolation-filters:linearRGB;solid-color:#000000;solid-opacity:1;fill:#ff6600;fill-opacity:1;fill-rule:nonzero;stroke:none;stroke-width:1;stroke-linecap:butt;stroke-linejoin:miter;stroke-miterlimit:4;stroke-dasharray:none;stroke-dashoffset:0;stroke-opacity:1;color-rendering:auto;image-rendering:auto;shape-rendering:auto;text-rendering:auto;enable-background:accumulate" /><path
       inkscape:connector-curvature="0"
       id="path3807-3"
       d="m 810.21701,535.16731 c -24.3498,-0.466 -43.00359,28.98248 -31.75195,50.73633 8.94153,20.21001 38.39516,28.06507 55.24804,12.93945 15.92198,-12.7977 18.10525,-40.03772 2.09961,-53.69921 -6.81403,-6.45321 -16.18321,-10.23958 -25.5957,-9.97657 z m 1.68555,13 c 17.82171,-0.4544 29.29999,24.34767 16.84375,37.36914 -9.83241,12.53753 -33.04146,10.03874 -38.51758,-5.47851 -6.03172,-13.18548 3.45055,-30.98408 18.37695,-31.70508 1.12582,-0.1441 2.2116,-0.14913 3.29688,-0.18555 z"
       style="color:#000000;font-style:normal;font-variant:normal;font-weight:normal;font-stretch:normal;font-size:medium;line-height:normal;font-family:sans-serif;text-indent:0;text-align:start;text-decoration:none;text-decoration-line:none;text-decoration-style:solid;text-decoration-color:#000000;letter-spacing:normal;word-spacing:normal;text-transform:none;direction:ltr;block-progression:tb;writing-mode:lr-tb;baseline-shift:baseline;text-anchor:start;white-space:normal;clip-rule:nonzero;display:inline;overflow:visible;visibility:visible;opacity:1;isolation:auto;mix-blend-mode:normal;color-interpolation:sRGB;color-interpolation-filters:linearRGB;solid-color:#000000;solid-opacity:1;fill:#ff6600;fill-opacity:1;fill-rule:nonzero;stroke:none;stroke-width:1;stroke-linecap:butt;stroke-linejoin:miter;stroke-miterlimit:4;stroke-dasharray:none;stroke-dashoffset:0;stroke-opacity:1;color-rendering:auto;image-rendering:auto;shape-rendering:auto;text-rendering:auto;enable-background:accumulate" /><path
       inkscape:connector-curvature="0"
       id="path3807-6"
       d="m 811.90766,101.79747 c -24.3498,-0.466 -43.00359,28.98248 -31.75195,50.73633 8.94153,20.21001 38.39516,28.06507 55.24804,12.93945 15.92198,-12.7977 18.10525,-40.03772 2.09961,-53.69921 -6.81403,-6.45321 -16.18321,-10.23958 -25.5957,-9.97657 z m 1.68555,13 c 17.82171,-0.4544 29.29999,24.34767 16.84375,37.36914 -9.83241,12.53753 -33.04146,10.03874 -38.51758,-5.47851 -6.03172,-13.18548 3.45055,-30.98408 18.37695,-31.70508 1.12582,-0.1441 2.2116,-0.14913 3.29688,-0.18555 z"
       style="color:#000000;font-style:normal;font-variant:normal;font-weight:normal;font-stretch:normal;font-size:medium;line-height:normal;font-family:sans-serif;text-indent:0;text-align:start;text-decoration:none;text-decoration-line:none;text-decoration-style:solid;text-decoration-color:#000000;letter-spacing:normal;word-spacing:normal;text-transform:none;direction:ltr;block-progression:tb;writing-mode:lr-tb;baseline-shift:baseline;text-anchor:start;white-space:normal;clip-rule:nonzero;display:inline;overflow:visible;visibility:visible;opacity:1;isolation:auto;mix-blend-mode:normal;color-interpolation:sRGB;color-interpolation-filters:linearRGB;solid-color:#000000;solid-opacity:1;fill:#ff6600;fill-opacity:1;fill-rule:nonzero;stroke:none;stroke-width:1;stroke-linecap:butt;stroke-linejoin:miter;stroke-miterlimit:4;stroke-dasharray:none;stroke-dashoffset:0;stroke-opacity:1;color-rendering:auto;image-rendering:auto;shape-rendering:auto;text-rendering:auto;enable-background:accumulate" /></g><text
     xml:space="preserve"
     style="font-style:normal;font-weight:normal;font-size:40px;line-height:125%;font-family:sans-serif;letter-spacing:0px;word-spacing:0px;fill:#000000;fill-opacity:1;stroke:none;stroke-width:1px;stroke-linecap:butt;stroke-linejoin:miter;stroke-opacity:1"
     x="249.38522"
     y="80.268456"
     id="text3927"
     sodipodi:linespacing="125%"><tspan
       sodipodi:role="line"
       id="tspan3929"
       x="249.38522"
       y="80.268456"
       style="font-style:normal;font-variant:normal;font-weight:bold;font-stretch:normal;font-size:50px;font-family:'Liberation Mono';-inkscape-font-specification:'Liberation Mono Bold';text-align:center;text-anchor:middle;fill:#ff6600">Pishro</tspan></text>
<text
     xml:space="preserve"
     style="font-style:normal;font-weight:normal;font-size:40px;line-height:125%;font-family:sans-serif;letter-spacing:0px;word-spacing:0px;fill:#000000;fill-opacity:1;stroke:none;stroke-width:1px;stroke-linecap:butt;stroke-linejoin:miter;stroke-opacity:1"
     x="154.63087"
     y="114.09396"
     id="text3931"
     sodipodi:linespacing="125%"><tspan
       sodipodi:role="line"
       id="tspan3933"
       x="154.63087"
       y="114.09396"
       style="font-size:22.5px;fill:#483e37">Cloud Computing</tspan></text>
</svg>